<?xml version="1.0" encoding="utf-8"?>
<!-- Generator: Adobe Illustrator 17.0.0, SVG Export Plug-In . SVG Version: 6.00 Build 0)  -->
<!DOCTYPE svg PUBLIC "-//W3C//DTD SVG 1.1//EN" "http://www.w3.org/Graphics/SVG/1.1/DTD/svg11.dtd">
<svg version="1.1" id="Layer_1" xmlns="http://www.w3.org/2000/svg" xmlns:xlink="http://www.w3.org/1999/xlink" x="0px" y="0px"
	 width="960px" height="560px" viewBox="0 0 960 560" enable-background="new 0 0 960 560" xml:space="preserve">
<g>
	<g>
		<path fill="#FFFFFF" d="M20.113,389.578"/>
		<g>
			<path fill="#CAFF31" d="M20.113,391.078c1.935,0,1.935-3,0-3S18.179,391.078,20.113,391.078L20.113,391.078z"/>
		</g>
	</g>
</g>
<g>
	<path fill="#FFFFFF" d="M96.745,167.674l11.823,107.605l11.176-107.605h66.019l-21.618,55.191v126.35l21.618,55.364h-71.499
		l20.41-55.364V195.616l-22.006,208.963H96.745L74.652,203.253v145.962l20.28,55.364H36.379l21.618-55.364v-126.35l-21.618-55.191
		H96.745z"/>
	<path fill="#FFFFFF" d="M278.446,167.674l-14.11,43.215l24.638,138.326l22.265,55.364h-74.217l20.453-48.596l-2.675-16.314h-33.916
		l-2.632,16.314l17.778,48.596h-55.015l17.346-55.364l24.25-138.326l-13.808-43.215H278.446z M237.022,236.402l-10.399,64.216
		h21.488L237.022,236.402z"/>
	<path fill="#FFFFFF" d="M442.197,167.674l-39.611,85.216l20.582,96.325l20.021,55.364h-67.313l17.777-51.373l-12.125-55.712
		l-22.956,42.175v9.546l16.311,55.364h-68.349l21.618-55.364v-126.35l-21.618-55.191h67.658l-15.62,51.373v65.084l33.872-69.076
		l-15.102-47.381H442.197z"/>
	<path fill="#FFFFFF" d="M558.313,167.674v102.398l-22.094-63.348h-41.553v51.72h22.826l16.225-27.769v106.911l-16.225-32.281
		h-22.826v52.414h41.553l23.818-68.034v114.895H442.629l21.618-54.844V222.691l-21.618-55.017H558.313z"/>
	<path fill="#FFFFFF" d="M567.675,167.674h71.369l10.787-0.174l13.808,3.645c6.933,3.471,12.557,11.137,16.872,22.996
		c4.314,11.861,6.472,25.6,6.472,41.22c0,30.085-8.529,49.117-25.587,57.1c5.781,5.787,10.219,14.088,13.312,24.905
		c3.092,10.82,6.033,28.437,8.823,52.849l14.283,34.364h-41.769c-3.567-34.364-6.774-59.587-9.622-75.671
		c-1.784-10.181-5.912-15.273-12.385-15.273h-14.325v35.927l21.618,55.018h-73.656l21.618-55.018V223.038L567.675,167.674z
		 M619.713,266.774h19.288l5.997-0.347c6.501,0,9.752-8.618,9.752-25.86c0-11.221-1.064-18.771-3.192-22.649
		c-2.13-3.875-6.286-5.814-12.471-5.814h-19.374V266.774z"/>
	<path fill="#FFFFFF" d="M813.237,277.708v126.871H698.418l21.574-54.844V223.212l-21.574-55.538h73.612l-21.575,55.538v134.507
		h36.332L813.237,277.708z"/>
	<path fill="#FFFFFF" d="M932.934,167.674l-19.633,47.381l-26.839,103.787v30.373l21.574,55.364h-73.095l21.618-55.364v-30.373
		l-27.831-107.779l-19.633-43.389h69.254l-14.714,43.389l15.62,57.447l15.103-61.439l-14.714-39.397H932.934z"/>
</g>
</svg>
